IKResults																																											
version=1																																											
nRows=22																																											
nColumns=44																																											
inDegrees=yes																																											
																																											
Units are S.I. units (second, meters, Newtons, ...)																																											
Angles are in degrees.																																											
																																											
endheader																																											
time	ground_spine_rot_x	ground_spine_rot_y	ground_spine_rot_z	ground_spine_tx	ground_spine_ty	ground_spine_tz	clav_prot	clav_elev	scapula_abduction	scapula_elevation	scapula_upward_rot	scapula_winging	plane_elv	shoulder_elv	axial_rot	elbow_flexion	pro_sup	clav_prot_l	clav_elev_l	pitch2	roll2	yaw2	aux7jnt_r3	aux7jnt_r1	aux7jnt_r2	aux6jnt_r3	aux6jnt_r1	aux6jnt_r2	aux5jnt_r3	aux5jnt_r1	aux5jnt_r2	aux4jnt_r3	aux4jnt_r1	aux4jnt_r2	aux3jnt_r3	aux3jnt_r1	aux3jnt_r2	pitch1	roll1	yaw1	aux1jnt_r3	aux1jnt_r1	aux1jnt_r2
1	1.07521749	-3.70587126	-1.88009264	0.05779935	1.0903346	0.86657557	-25.80966433	-0.80843537	0.47209825	-15.13347771	9.99856677	20.28102079	-61.96372264	35.54036044	50.51880577	0	34.32	30.42326055	-1.1607173	0.06067694	-0.03424998	-0.00426989	0.65011218	-0.26884575	-0.04599354	0.76483598	-0.30809379	-0.05357755	0.76483598	-0.42387365	-0.05357755	0.57362699	-0.42387365	-0.05357755	0.38241799	-0.38462674	-0.02299677	-0.18591388	0.00376386	-0.00106212	-5.92255407	0.1078265	-0.00675491
1.01	1.07507444	-3.6855667	-1.91529874	0.05778786	1.09029303	0.86660637	-25.91578822	-0.78857996	0.27810999	-15.1255134	9.99901523	20.35713087	-62.2657487	35.4881036	49.78527427	0	34.32	30.42326055	-1.1607173	0.07557934	-0.03846608	-0.00275279	0.80978128	-0.30194004	-0.02965202	0.95268152	-0.34601942	-0.03454143	0.95268152	-0.47605151	-0.03454143	0.71451114	-0.47605151	-0.03454143	0.47634076	-0.4319734	-0.01482601	-0.2055669	0.00948756	-0.00047393	-6.54862924	0.27179851	-0.00301414
1.02	1.09857632	-3.65893898	-1.91516144	0.05784792	1.09031009	0.86645094	-25.96087671	-0.73007359	0.17492942	-15.07404737	9.99919495	20.37835393	-62.23891635	35.48484821	49.54411935	0	34.32	30.42326055	-1.1607173	0.07582683	-0.04320115	-0.00174122	0.81243299	-0.33910804	-0.01875578	0.95580118	-0.38861347	-0.02184848	0.95580118	-0.53465216	-0.02184848	0.71685088	-0.53465216	-0.02184848	0.47790059	-0.48514814	-0.00937789	-0.20588691	0.01470449	-0.00009787	-6.55882353	0.42125267	-0.00062245
1.03	1.13504214	-3.6273115	-1.9162089	0.05790977	1.09032071	0.86619518	-25.99481512	-0.64286953	0.07998456	-14.99404461	9.99991553	20.38473103	-62.07956104	35.45650269	49.18295131	0	34.32	30.42326055	-1.1607173	0.07510378	-0.04894847	-0.00146468	0.80468596	-0.38422173	-0.01577691	0.94668705	-0.44031319	-0.01837841	0.94668705	-0.60578033	-0.01837841	0.71001529	-0.60578033	-0.01837841	0.47334352	-0.54969048	-0.00788845	-0.20519624	0.02130618	0.00030059	-6.53682114	0.61037713	0.00191169
1.04	1.19638698	-3.67158934	-1.87665844	0.05813118	1.09039509	0.86589798	-25.98116869	-0.58263534	0.07717536	-14.93409964	9.99756491	20.36196347	-60.9430641	35.30498963	48.12637691	0	34.32	30.42326055	-1.1607173	0.06602485	-0.05913362	0.00090156	0.70741135	-0.46417022	0.00971125	0.83224661	-0.53193313	0.01131257	0.83224661	-0.73183051	0.01131257	0.62418496	-0.73183051	0.01131257	0.4161233	-0.66406954	0.00485562	-0.19609109	0.03427963	0.00176797	-6.24676365	0.98203896	0.01124399
1.05	1.154353	-3.55380428	-1.91313313	0.05807773	1.09034381	0.86610068	-26.18445753	-0.53698802	-0.29926642	-14.91148617	9.99945186	20.50476867	-62.22414837	35.32172602	48.06800214	0	34.32	30.42326055	-1.1607173	0.07184137	-0.05535783	-0.00039151	0.76973148	-0.4345321	-0.00421721	0.90556422	-0.49796823	-0.0049126	0.90556422	-0.6851018	-0.0049126	0.67917317	-0.6851018	-0.0049126	0.45278211	-0.62166749	-0.0021086	-0.20150481	0.02898532	-0.00036398	-6.41922553	0.83036821	-0.00231483
1.06	1.03549626	-3.65164059	-1.91076996	0.05809895	1.09033314	0.86685598	-25.71450766	-0.75884081	0.61945127	-15.0764065	9.99961771	20.19728853	-62.59903452	35.6861008	48.85820196	0	34.32	30.42326055	-1.1607173	0.07368428	-0.03635034	-0.0015115	0.789477	-0.28533254	-0.01628128	0.9287942	-0.32698744	-0.01896595	0.9287942	-0.44986742	-0.01896595	0.69659565	-0.44986742	-0.01896595	0.4643971	-0.40821371	-0.00814064	-0.20502308	0.00510156	-0.00061378	-6.53130512	0.14614882	-0.00390354
1.07	1.05729829	-3.58663533	-1.91352739	0.05815024	1.09030999	0.86664706	-25.82548906	-0.6494069	0.3795589	-14.9826401	9.9988105	20.25808324	-62.47197108	35.60291213	48.21118118	0	34.32	30.42326055	-1.1607173	0.07335568	-0.04004731	-0.00133097	0.78595622	-0.31435198	-0.01433671	0.92465211	-0.36024334	-0.01670074	0.92465211	-0.4956207	-0.01670074	0.69348908	-0.4956207	-0.01670074	0.46232606	-0.44973065	-0.00716836	-0.20452062	0.00990182	-0.00083248	-6.51529831	0.2836663	-0.00529443
1.08	1.07571157	-3.58289011	-1.91273691	0.05828435	1.09031006	0.86653346	-25.81834857	-0.61442505	0.37776526	-14.94833472	9.99872868	20.24507118	-62.43620037	35.58957252	48.03466933	0	34.32	30.42326055	-1.1607173	0.07450441	-0.04356738	-0.00072202	0.7982641	-0.34198279	-0.00777731	0.93913193	-0.3919079	-0.00905973	0.93913193	-0.53918462	-0.00905973	0.70434895	-0.53918462	-0.00905973	0.46956597	-0.48926094	-0.00388865	-0.205983	0.01376986	-0.00070048	-6.56188462	0.39447746	-0.00445494
1.09	1.01786064	-3.61380257	-1.92049169	0.058318	1.09036074	0.86693764	-25.62743358	-0.72666567	0.75804154	-15.03635643	9.99898968	20.12391419	-62.77044972	35.74131416	49.11621776	0	34.32	30.42326055	-1.1607173	0.07384629	-0.03754057	-0.00161354	0.79121281	-0.29467523	-0.01738043	0.93083632	-0.33769404	-0.02024634	0.93083632	-0.4645975	-0.02024634	0.69812724	-0.4645975	-0.02024634	0.46541816	-0.42157992	-0.00869022	-0.20532402	0.00543864	-0.0014788	-6.54089192	0.1558055	-0.00940492
1.1	1.08791069	-3.58582648	-1.89816864	0.0585517	1.09036356	0.86647161	-25.6841898	-0.51776255	0.57375687	-14.84187907	9.99852951	20.12213903	-62.20279921	35.64627585	48.36702158	0	34.32	30.42326055	-1.1607173	0.07206982	-0.04336995	-0.0010614	0.77217917	-0.34043307	-0.01143297	0.90844386	-0.39013194	-0.01331819	0.90844386	-0.53674126	-0.01331819	0.68133289	-0.53674126	-0.01331819	0.45422193	-0.48704382	-0.00571649	-0.20358136	0.01039434	-0.0014619	-6.48537706	0.29777593	-0.00929747
1.11	1.05398299	-3.53510059	-1.91668306	0.05857152	1.09033157	0.86666986	-25.79735346	-0.51447135	0.37415304	-14.85040508	9.99889269	20.2074746	-62.55001078	35.57651742	48.18376683	0	34.32	30.42326055	-1.1607173	0.07523096	-0.04591041	-0.00022851	0.80604858	-0.36037444	-0.00246138	0.94829013	-0.41298449	-0.00286725	0.94829013	-0.56818167	-0.00286725	0.71121759	-0.56818167	-0.00286725	0.47414506	-0.51557312	-0.00123069	-0.20612864	0.01626091	-0.0009801	-6.56652427	0.46584068	-0.00623329
1.12	1.01511149	-3.55838785	-1.92478115	0.05860592	1.09031786	0.86693501	-25.74071746	-0.5580447	0.49150675	-14.8864674	9.99914661	20.17370394	-62.73208391	35.6308326	47.90057666	0	34.32	30.42326055	-1.1607173	0.07582865	-0.04461324	0.00033009	0.81245245	-0.3501923	0.00355555	0.95582407	-0.40131589	0.00414183	0.95582407	-0.55212808	0.00414183	0.71686805	-0.55212808	0.00414183	0.47791203	-0.50100595	0.00177777	-0.20603973	0.01490583	-0.00076594	-6.56369181	0.42702066	-0.00487125
1.13	0.95893954	-3.58729694	-1.91782452	0.05877988	1.09033055	0.86730211	-25.55158297	-0.59542816	0.83769958	-14.90287473	9.99917368	20.03736147	-62.92299084	35.76185354	49.00465796	0	34.32	30.42326055	-1.1607173	0.07623579	-0.03748343	-0.00030452	0.81681472	-0.29422675	-0.00328015	0.96095613	-0.33718009	-0.00382102	0.96095613	-0.46389041	-0.00382102	0.7207171	-0.46389041	-0.00382102	0.48047807	-0.4209383	-0.00164008	-0.20653296	0.00505783	-0.001362	-6.57940435	0.14489619	-0.0086621
1.14	0.97630586	-3.55995791	-1.93934786	0.05876717	1.09031737	0.86717856	-25.66856455	-0.46856205	0.58172504	-14.79330818	9.99902784	20.09950799	-62.71436706	35.54696841	48.81536082	0	34.32	30.42326055	-1.1607173	0.07738694	-0.04157391	0.00015399	0.82914842	-0.32633504	0.00165875	0.97546634	-0.37397578	0.00193226	0.97546634	-0.51451371	0.00193226	0.73159975	-0.51451371	0.00193226	0.48773317	-0.46687434	0.00082937	-0.2067871	0.00952911	-0.00143087	-6.58750031	0.27298876	-0.00910011
1.15	0.9328988	-3.5609391	-1.95049816	0.05883672	1.09032943	0.86746225	-25.59307181	-0.47659368	0.71755028	-14.79335276	9.99913468	20.04370449	-62.74821594	35.55683049	49.38342259	0	34.32	30.42326055	-1.1607173	0.0781744	-0.03930607	0.00032989	0.83758557	-0.30853362	0.00355344	0.98539237	-0.35357558	0.00413938	0.98539237	-0.48644723	0.00413938	0.73904428	-0.48644723	0.00413938	0.49269618	-0.44140656	0.00177672	-0.20721711	0.00798756	-0.00118836	-6.60119903	0.22882663	-0.00755776
1.16	0.89688508	-3.58564981	-1.94523505	0.05902437	1.09029794	0.86769978	-25.60351682	-0.42759625	0.6791708	-14.74741518	9.99894904	20.04121409	-62.75712944	35.56300886	49.40115309	0	34.32	30.42326055	-1.1607173	0.07825614	-0.03894211	0.00069696	0.8384613	-0.30567665	0.00750742	0.98642264	-0.35030153	0.00874534	0.98642264	-0.48194281	0.00874534	0.73981698	-0.48194281	0.00874534	0.49321132	-0.43731921	0.00375371	-0.20631937	0.00776019	-0.00072289	-6.57260021	0.22231319	-0.00459745
1.17	0.86512911	-3.58960616	-1.96537004	0.05907545	1.09024544	0.86791515	-25.73026181	-0.2766849	0.39637243	-14.61585376	9.99921111	20.10591162	-62.84871094	35.31964291	50.83945365	0	34.32	30.42326055	-1.1607173	0.08140186	-0.03768166	0.0008117	0.87216556	-0.29578276	0.00874331	1.02607462	-0.33896325	0.01018502	1.02607462	-0.46634368	0.01018502	0.76955596	-0.46634368	0.01018502	0.51303731	-0.42316442	0.00437166	-0.20818893	0.00575524	-0.00020651	-6.63215775	0.16487552	-0.0013134
1.18	0.90219391	-3.56397434	-1.96812294	0.05921698	1.09025072	0.86769562	-25.85544067	-0.09014284	0.10075234	-14.4497394	9.99919403	20.16216532	-62.35558575	35.1451073	50.26715279	0	34.32	30.42326055	-1.1607173	0.08199566	-0.04371953	0.00135745	0.87852777	-0.3431771	0.01462195	1.03355955	-0.39327656	0.01703301	1.03355955	-0.54106761	0.01703301	0.77516966	-0.54106761	0.01703301	0.51677977	-0.49096958	0.00731098	-0.20764574	0.01082978	-0.00022536	-6.61485346	0.31025025	-0.00143323
1.19	0.95256332	-3.53002938	-1.95549662	0.05950021	1.09030368	0.86736737	-26.00450744	0.18410929	-0.27360173	-14.201712	9.99902457	20.2190318	-62.07044265	34.90417864	49.75446159	0	34.32	30.42326055	-1.1607173	0.0818775	-0.05158764	0.00227802	0.87726179	-0.40493797	0.02453793	1.03207016	-0.46405373	0.02858406	1.03207016	-0.63844244	0.02858406	0.77405262	-0.63844244	0.02858406	0.51603508	-0.57932837	0.01226896	-0.20639198	0.01945179	0.00005974	-6.57491311	0.55725274	0.00037996
1.2	0.87145561	-3.52916254	-1.95488265	0.05975058	1.09031551	0.86793758	-26.19835864	0.44406309	-0.72270166	-13.97175824	9.99991308	20.31277355	-61.96008777	34.61136132	49.16530956	0	34.32	30.42326055	-1.1607173	0.08498055	-0.04488391	0.00349038	0.9105088	-0.35231689	0.03759701	1.07118419	-0.40375065	0.04379649	1.07118419	-0.5554778	0.04379649	0.80338815	-0.5554778	0.04379649	0.5355921	-0.50404552	0.0187985	-0.20862337	0.01437834	0.00169729	-6.6459973	0.41190905	0.01079452
1.21	0.83215429	-3.47009406	-1.98955505	0.05967361	1.09030364	0.86817025	-26.38517959	0.59906857	-1.12125986	-13.84073991	9.9988839	20.42184294	-61.84865026	34.23177705	49.77396704	0	34.32	30.42326055	-1.1607173	0.08806076	-0.04024617	0.00213605	0.9435112	-0.31591294	0.02300871	1.11001045	-0.36203218	0.02680269	1.11001045	-0.49808178	0.02680269	0.83250784	-0.49808178	0.02680269	0.55500523	-0.45196385	0.01150436	-0.21061772	0.00655669	-0.00063849	-6.70953011	0.18783537	-0.00406067
